<svg width="48" height="48" viewBox="0 0 48 48" fill="none" xmlns="http://www.w3.org/2000/svg">
<g clip-path="url(#clip0_45_608)">
<path d="M24 30.1145C26.4861 30.1145 28.5087 28.0919 28.5087 25.6059C28.5087 23.1198 26.4861 21.0972 24 21.0972C21.514 21.0972 19.4913 23.1198 19.4913 25.6059C19.4913 28.0919 21.514 30.1145 24 30.1145ZM24 23.9498C24.7956 23.9498 25.3848 24.6001 25.4192 25.369C25.4535 26.1355 24.7423 26.7882 24 26.7882C23.2044 26.7882 22.6152 26.138 22.5808 25.369C22.5465 24.6026 23.2577 23.9498 24 23.9498Z" fill="#005340"/>
<path d="M31.4651 8.95209H37.7282V4.62572C37.7282 2.07515 35.6531 0 33.1025 0H31.4651V8.95209Z" fill="#005340"/>
<path d="M28.6267 0H25.4192V3.32924H22.5808V0H19.3733V8.95209H22.5808V6.69122H25.4192V8.95209H28.6267V0Z" fill="#005340"/>
<path d="M10.3557 11.7905L11.8675 36.5848C12.2578 42.9859 17.587 48 23.9999 48C30.4128 48 35.742 42.9859 36.1323 36.5848L37.6441 11.7905H10.3557ZM21.5789 39.1821V36.3437H26.4213V39.1821H21.5789ZM24 18.2587C28.0511 18.2587 31.3471 21.5546 31.3471 25.6058C31.3471 29.6569 28.0511 32.9528 24 32.9528C19.9489 32.9528 16.6529 29.6569 16.6529 25.6058C16.6529 21.5546 19.9489 18.2587 24 18.2587Z" fill="#005340"/>
<path d="M16.5349 8.95209V0H14.8975C12.3469 0 10.2718 2.07515 10.2718 4.62572V8.95219H16.5349V8.95209Z" fill="#005340"/>
</g>
<defs>
<clipPath id="clip0_45_608">
<rect width="48" height="48" fill="white"/>
</clipPath>
</defs>
</svg>
