<svg width="48" height="48" viewBox="0 0 48 48" fill="none" xmlns="http://www.w3.org/2000/svg">
<path d="M39 13.769L36.7454 11.0296L36 12.2161V19.5H39V13.769Z" fill="#005340"/>
<path d="M40.5 27V21H34.5V26.4413C34.5664 26.6257 34.6287 26.8119 34.6869 27H40.5Z" fill="#005340"/>
<path d="M13.5014 37.5H15.4635C14.1406 36.1208 13.2523 34.3833 12.9088 32.5033C12.5653 30.6234 12.7819 28.6839 13.5316 26.9261C14.2812 25.1682 15.531 23.6694 17.1255 22.616C18.72 21.5625 20.5889 21.0009 22.5 21.0009C24.4111 21.0009 26.28 21.5625 27.8745 22.616C29.469 23.6694 30.7188 25.1682 31.4685 26.9261C32.2181 28.6839 32.4347 30.6234 32.0912 32.5033C31.7477 34.3833 30.8594 36.1208 29.5365 37.5H31.4986C32.9682 35.5574 33.7592 33.1859 33.75 30.75C33.75 27.7663 32.5647 24.9048 30.455 22.795C28.3452 20.6853 25.4837 19.5 22.5 19.5C19.5163 19.5 16.6548 20.6853 14.5451 22.795C12.4353 24.9048 11.25 27.7663 11.25 30.75C11.2408 33.1859 12.0318 35.5574 13.5014 37.5Z" fill="#005340"/>
<path d="M35.25 30.75C35.25 31.0006 35.2424 31.2506 35.2272 31.5H42V28.5H35.0511C35.1837 29.2427 35.2503 29.9956 35.25 30.75Z" fill="#005340"/>
<path d="M30.75 30.75C30.75 29.333 30.3849 27.9398 29.6901 26.7048C28.9952 25.4698 27.9939 24.4346 26.7828 23.699C25.5716 22.9634 24.1914 22.5521 22.7752 22.5048C21.3589 22.4576 19.9543 22.7759 18.6968 23.4291C17.4393 24.0824 16.3713 25.0485 15.5956 26.2345C14.82 27.4204 14.3629 28.7861 14.2684 30.2C14.1739 31.6139 14.4451 33.0283 15.056 34.3069C15.6669 35.5855 16.5969 36.6852 17.7563 37.5H27.2438C28.3276 36.7394 29.2121 35.7289 29.8225 34.5539C30.4328 33.3789 30.751 32.0741 30.75 30.75Z" fill="#005340"/>
<path d="M12.7492 5.19234C12.7335 4.60601 12.4897 4.04893 12.0697 3.63953C11.6497 3.23013 11.0865 3.00069 10.5 3H7.5C6.91345 3.00069 6.35031 3.23013 5.93028 3.63953C5.51025 4.04893 5.26647 4.60601 5.25075 5.19234L6.63534 13.5H11.3647L12.7492 5.19234Z" fill="#005340"/>
<path d="M19.5 39H25.5V40.5H19.5V39Z" fill="#005340"/>
<path d="M6.75 15H11.25V24H6.75V15Z" fill="#005340"/>
<path d="M9.75 38.25C9.75 38.0511 9.82902 37.8603 9.96967 37.7197C10.1103 37.579 10.3011 37.5 10.5 37.5H11.25V36.7478C10.3315 35.0263 9.82069 33.1169 9.75683 31.1667C9.69297 29.2166 10.0778 27.2779 10.8817 25.5H6.75V44.25C6.75022 44.4488 6.82931 44.6395 6.96992 44.7801C7.11052 44.9207 7.30116 44.9998 7.5 45H10.502C10.0132 44.3518 9.74916 43.5618 9.75 42.75V38.25Z" fill="#005340"/>
<path d="M33.316 37.5H34.5C34.6989 37.5 34.8897 37.579 35.0303 37.7197C35.171 37.8603 35.25 38.0511 35.25 38.25V42.75C35.2509 43.5619 34.9868 44.3518 34.4979 45H42.75V33H35.048C34.7607 34.5961 34.1729 36.1231 33.316 37.5Z" fill="#005340"/>
<path d="M27 41.25C27 41.4489 26.921 41.6397 26.7803 41.7803C26.6397 41.921 26.4489 42 26.25 42H18.75C18.5511 42 18.3603 41.921 18.2197 41.7803C18.079 41.6397 18 41.4489 18 41.25V39H11.25V42.75C11.2507 43.3465 11.488 43.9184 11.9098 44.3402C12.3316 44.762 12.9035 44.9993 13.5 45H31.5C32.0965 44.9993 32.6684 44.762 33.0902 44.3402C33.512 43.9184 33.7493 43.3465 33.75 42.75V39H27V41.25Z" fill="#005340"/>
</svg>
