<svg width="48" height="48" viewBox="0 0 48 48" fill="none" xmlns="http://www.w3.org/2000/svg">
<g clip-path="url(#clip0_45_639)">
<path d="M24 25.602C19.1671 25.602 14.3345 24.6269 9.74973 22.6784C7.63126 26.7073 7.18558 31.6709 8.55086 36.0359L12.3783 48H22.5938V35.1424H25.4063V48H35.6217L39.4492 36.0359C40.8144 31.6709 40.3688 26.7073 38.2503 22.6784C33.6655 24.6269 28.8329 25.602 24 25.602Z" fill="#005340"/>
<path d="M36.7252 20.2672C34.2347 16.4837 33.3234 11.3073 34.2526 6.73791L35.6217 0H12.3783L13.7473 6.73791C14.6766 11.3073 13.7653 16.4837 11.2747 20.2672C19.4828 23.6256 28.5172 23.6256 36.7252 20.2672ZM22.5062 14.5852H25.4937V17.3977H22.5062V14.5852Z" fill="#005340"/>
<path d="M48 10.5364H42.0635L43.7909 8.27923L41.5573 6.56989L37.4457 11.9426L41.5573 17.3152L43.7909 15.606L42.0635 13.3489H48V10.5364Z" fill="#005340"/>
<path d="M6.44269 6.56989L4.20909 8.27923L5.93653 10.5364H0V13.3489H5.93653L4.20909 15.606L6.44269 17.3152L10.5543 11.9426L6.44269 6.56989Z" fill="#005340"/>
</g>
<defs>
<clipPath id="clip0_45_639">
<rect width="48" height="48" fill="white"/>
</clipPath>
</defs>
</svg>
